HIERARCHY
ROOT root
{
	OFFSET	0	13.1	24.9
	CHANNELS 6  Xposition Yposition Zposition Xrotation Yrotation Zrotation
	JOINT spine_1
	{
		OFFSET	0	9.99999	0
		CHANNELS 3  Xrotation Yrotation Zrotation
		JOINT spine_2
		{
			OFFSET	0	112	-10
			CHANNELS 3  Xrotation Yrotation Zrotation
			JOINT spine_3
			{
				OFFSET	0	206.5	19.3
				CHANNELS 3  Xrotation Yrotation Zrotation
				JOINT spine_4
				{
					OFFSET	0	110.4	14.6
					CHANNELS 3  Xrotation Yrotation Zrotation
					JOINT neck_1
					{
						OFFSET	0	71.8	-50.3
						CHANNELS 3  Xrotation Yrotation Zrotation
						JOINT neck_2
						{
							OFFSET	0	86.2	-25.8
							CHANNELS 3  Xrotation Yrotation Zrotation
							JOINT head_ee
							{
								OFFSET	0	179.8	-8.7
								CHANNELS 3  Xrotation Yrotation Zrotation
								End Site
								{
									OFFSET	1	0	0
								}
							}
						}
					}
					JOINT left_clavicle
					{
						OFFSET	-43.2	22.4	-70.8
						CHANNELS 3  Xrotation Yrotation Zrotation
						JOINT left_shoulder
						{
							OFFSET	-93.9	-5.79999	48.7
							CHANNELS 3  Xrotation Yrotation Zrotation
							JOINT left_elbow
							{
								OFFSET	-291.4	-30.8	15.2
								CHANNELS 3  Xrotation Yrotation Zrotation
								JOINT left_lowarm_twist
								{
									OFFSET	-110.7	-3.89999	13.6
									CHANNELS 3  Xrotation Yrotation Zrotation
									JOINT left_hand
									{
										OFFSET	-110.7	-3.89999	13.6
										CHANNELS 3  Xrotation Yrotation Zrotation
										JOINT left_ee
										{
											OFFSET	-80.8	-5.10001	12.1
											CHANNELS 3  Xrotation Yrotation Zrotation
											End Site
											{
												OFFSET	1	0	0
											}
										}
									}
								}
							}
						}
					}
					JOINT right_clavicle
					{
						OFFSET	43.2	22.4	-70.8
						CHANNELS 3  Xrotation Yrotation Zrotation
						JOINT right_shoulder
						{
							OFFSET	93.9	-5.79999	48.7
							CHANNELS 3  Xrotation Yrotation Zrotation
							JOINT right_elbow
							{
								OFFSET	291.4	-30.8	15.2
								CHANNELS 3  Xrotation Yrotation Zrotation
								JOINT right_lowarm_twist
								{
									OFFSET	110.7	-3.89999	13.6
									CHANNELS 3  Xrotation Yrotation Zrotation
									JOINT right_hand
									{
										OFFSET	110.7	-3.89999	13.6
										CHANNELS 3  Xrotation Yrotation Zrotation
										JOINT right_ee
										{
											OFFSET	80.8	-5.10001	12.1
											CHANNELS 3  Xrotation Yrotation Zrotation
											End Site
											{
												OFFSET	1	0	0
											}
										}
									}
								}
							}
						}
					}
				}
			}
		}
	}
	JOINT left_hip
	{
		OFFSET	-82.8	-127.5	0.300001
		CHANNELS 3  Xrotation Yrotation Zrotation
		JOINT left_knee
		{
			OFFSET	-28.2	-396.7	2.2
			CHANNELS 3  Xrotation Yrotation Zrotation
			JOINT left_ankle
			{
				OFFSET	-11.7	-411.3	35.4
				CHANNELS 3  Xrotation Yrotation Zrotation
				JOINT left_toes
				{
					OFFSET	0	-60	-88.6
					CHANNELS 3  Xrotation Yrotation Zrotation
					JOINT left_foot_ee
					{
						OFFSET	-22.5	-16.5	-42.2
						CHANNELS 3  Xrotation Yrotation Zrotation
						End Site
						{
							OFFSET	1	0	0
						}
					}
				}
			}
		}
	}
	JOINT right_hip
	{
		OFFSET	82.8	-127.5	0.300001
		CHANNELS 3  Xrotation Yrotation Zrotation
		JOINT right_knee
		{
			OFFSET	28.2	-396.7	2.2
			CHANNELS 3  Xrotation Yrotation Zrotation
			JOINT right_ankle
			{
				OFFSET	11.7	-411.3	35.4
				CHANNELS 3  Xrotation Yrotation Zrotation
				JOINT right_toes
				{
					OFFSET	0	-60	-88.6
					CHANNELS 3  Xrotation Yrotation Zrotation
					JOINT right_foot_ee
					{
						OFFSET	22.5	-16.5	-42.2
						CHANNELS 3  Xrotation Yrotation Zrotation
						End Site
						{
							OFFSET	1	0	0
						}
					}
				}
			}
		}
	}
}
MOTION
Frames: 15
Frame Time: 0.02
741.438 740.873 -1344.85 -174.931 -47.0745 174.216 2.26627 0.560202 4.50168 2.2775 0.272913 4.52813 2.29782 -0.5053 4.50816 2.26953 0.212265 4.53137 -17.4499 4.19969 -10.1576 -17.3786 13.6845 -7.95998 -0.0 0.0 -0.0 1.24225 22.5133 4.34535 -16.6245 -24.1367 60.6913 0.598974 -16.5265 0.0869893 3.62952 0.113666 -0.449585 -3.31345 25.6728 -8.43571 -0.0 0.0 -0.0 11.8024 22.3572 -23.2946 -23.5561 31.5313 -56.5716 0.948267 25.1611 -0.211629 13.3394 -0.275781 1.67783 -1.5035 -2.56101 8.92436 0.0 0.0 0.0 9.52813 -3.00412 15.0203 -15.6567 0.322074 2.37364 37.9142 21.3011 -4.86126 -13.4823 0.0 0.0 -0.0 0.0 -0.0 10.0447 2.22063 19.1457 -29.5089 -0.0625638 -4.47834 28.3654 -25.211 3.92102 9.73495 -0.0 -0.0 0.0 0.0 0.0 
761.315 739.122 -1344.81 -175.425 -46.3694 173.699 2.28925 0.55124 4.46401 2.3003 0.266359 4.48997 2.31987 -0.503511 4.46964 2.29206 0.207967 4.49305 -19.5822 5.90654 -7.57333 -19.758 15.2797 -4.60117 -0.0 0.0 -0.0 1.29426 22.1731 4.39335 -15.5489 -24.306 59.9188 0.648555 -17.811 0.101626 4.27514 0.130889 -0.530258 -3.62645 28.7481 -8.3516 -0.0 0.0 -0.0 11.4938 20.0499 -22.7729 -24.5192 31.2052 -56.6075 0.953951 25.2931 -0.214052 11.5747 -0.261841 1.45288 -1.62249 -1.83944 10.0566 0.0 0.0 0.0 8.11075 3.7104 14.54 -19.0298 0.305921 2.89085 38.3375 21.8585 -4.91634 -13.8088 0.0 0.0 -0.0 0.0 -0.0 12.6149 5.21769 20.8836 -33.5601 0.108675 -5.0763 21.6965 -27.3448 3.13411 10.079 -0.0 -0.0 0.0 0.0 0.0 
773.164 745.976 -1348.01 -175.412 -46.2165 173.648 2.37879 0.441915 4.68609 2.39099 0.143168 4.70466 2.40088 -0.655439 4.66108 2.37058 0.0880721 4.70601 -19.6397 7.51119 -4.52096 -19.9922 16.7907 -1.05244 -0.0 0.0 -0.0 1.33569 21.8278 4.42685 -14.1925 -24.6102 59.8819 0.662868 -18.1785 0.106048 4.65437 0.14058 -0.577732 -3.68766 28.7504 -8.68398 -0.0 0.0 -0.0 11.3868 18.5869 -22.6264 -25.641 30.9823 -56.9333 0.977649 25.8404 -0.224279 10.3217 -0.247739 1.29345 -1.60791 -1.25482 10.227 0.0 0.0 0.0 7.09028 8.00947 14.2096 -20.3823 0.290897 3.09783 38.6392 22.2864 -4.95672 -13.8888 0.0 0.0 -0.0 0.0 -0.0 13.1642 6.99549 21.1383 -35.8442 0.223761 -5.40776 19.4573 -27.4265 2.83816 10.6245 -0.0 -0.0 0.0 0.0 0.0 
788.698 745.7 -1341.04 -176.298 -45.8017 172.106 2.49617 0.338931 4.69165 2.50841 0.0400388 4.70368 2.50936 -0.748435 4.64406 2.47927 -0.00644386 4.70384 -18.9061 8.53396 -2.87491 -19.3227 17.9392 0.807443 -0.0 0.0 -0.0 1.26754 21.0335 4.27091 -12.7557 -24.7996 58.6729 0.650255 -17.8547 0.102147 5.03846 0.150075 -0.625878 -3.64642 28.3434 -8.70653 -0.0 0.0 -0.0 10.9882 16.6458 -21.8305 -26.3422 30.619 -57.4961 0.948382 25.1638 -0.211678 9.47922 -0.236298 1.18645 -1.60164 -1.3148 10.1571 0.0 0.0 0.0 4.75534 10.498 14.9352 -23.4275 0.239217 3.5622 39.0729 22.6533 -5.00847 -14.0153 0.0 0.0 -0.0 0.0 -0.0 14.503 8.17793 21.0321 -38.5008 0.374157 -5.78727 13.6024 -28.1567 2.0371 10.5648 -0.0 -0.0 0.0 0.0 0.0 
806.124 745.177 -1334.73 -177.337 -44.3012 170.867 2.33378 0.514769 4.59814 2.34551 0.221453 4.62151 2.36179 -0.567044 4.592 2.33242 0.164491 4.62388 -17.8182 9.21348 -2.15598 -18.247 18.8849 1.578 -0.0 0.0 -0.0 1.06694 19.7285 3.87552 -11.8595 -24.9885 58.4325 0.588899 -16.2633 0.0841457 5.62665 0.16399 -0.699725 -3.57821 28.0001 -8.53932 -0.0 0.0 -0.0 10.7414 15.0522 -21.3461 -26.8242 30.1045 -58.0478 0.914617 24.3737 -0.197532 8.84742 -0.226687 1.10632 -1.55532 -2.25479 9.41296 0.0 0.0 0.0 4.00381 10.1164 15.6218 -24.8865 0.205726 3.78358 39.3594 22.8723 -5.04205 -14.3772 0.0 0.0 -0.0 0.0 -0.0 15.6591 9.2465 20.8608 -40.5897 0.504707 -6.08062 9.41246 -27.9961 1.42714 10.5146 -0.0 -0.0 0.0 0.0 0.0 
816.487 744.852 -1333.58 -177.255 -43.7622 170.645 2.25712 0.606968 4.61348 2.2689 0.312494 4.64267 2.29297 -0.486212 4.62773 2.26319 0.24994 4.64645 -19.1905 9.80217 -1.50419 -19.7284 19.6574 2.67767 -0.0 0.0 -0.0 1.50268 19.2608 4.48607 -10.2724 -25.4662 57.0914 0.63681 -17.5083 0.0980629 5.98072 0.171999 -0.744245 -3.6391 28.3475 -8.66393 -0.0 0.0 -0.0 10.3755 14.3729 -20.5539 -27.1592 30.0024 -58.694 0.891107 23.8177 -0.187934 9.87033 -0.241805 1.2361 -1.61612 -3.70612 9.15178 0.0 0.0 0.0 3.06916 7.07135 17.0453 -21.9275 0.267759 3.33379 39.6693 24.0346 -5.10575 -14.682 0.0 0.0 -0.0 0.0 -0.0 15.3079 13.7725 19.5434 -42.1809 0.611315 -6.30086 5.84031 -29.359 0.902529 11.3845 -0.0 -0.0 0.0 0.0 0.0 
827.546 743.435 -1326.44 -178.043 -41.4313 170.569 1.91059 0.850929 4.39394 1.92115 0.569889 4.43906 1.96549 -0.222512 4.4699 1.93795 0.485502 4.44906 -18.7441 10.3501 -0.55305 -19.2966 20.2134 3.71171 -0.0 0.0 -0.0 1.36034 19.3235 4.27862 -8.13455 -26.3106 56.608 0.683713 -18.7108 0.112643 5.42413 0.159284 -0.674282 -3.44489 25.6534 -9.19245 -0.0 0.0 -0.0 10.4371 14.7151 -20.6783 -27.3483 29.6313 -59.1971 0.814593 21.9752 -0.158161 8.87403 -0.22711 1.10969 -1.58772 -3.85942 8.89107 0.0 0.0 0.0 3.00374 8.57147 16.0124 -26.4927 0.162345 4.02626 39.8397 23.727 -5.11275 -14.3303 0.0 0.0 -0.0 0.0 -0.0 16.7735 11.027 19.8675 -42.2057 0.613026 -6.30427 4.81293 -28.5169 0.741612 10.5944 -0.0 -0.0 0.0 0.0 0.0 
831.065 749.02 -1318.43 -178.138 -40.4143 171.545 1.73756 1.00164 4.40846 1.74808 0.719376 4.46311 1.80501 -0.091845 4.51967 1.77706 0.622376 4.47764 -18.4298 10.8419 0.400454 -18.9901 20.6486 4.74148 -0.0 0.0 -0.0 0.414009 19.1196 2.85079 -7.23049 -26.2464 55.14 0.963319 -25.51 0.21807 4.04095 0.124746 -0.500972 -3.68646 24.1596 -11.4771 -0.0 0.0 -0.0 10.4353 13.6819 -20.7116 -26.0741 29.0074 -60.4962 0.791046 21.3982 -0.149459 9.61808 -0.238292 1.20407 -1.59395 -6.06381 7.91137 0.0 0.0 0.0 2.15762 7.89924 15.1066 -25.8206 0.181326 3.92485 39.9741 24.379 -5.14559 -14.3672 0.0 0.0 -0.0 0.0 -0.0 22.1753 7.569 17.8513 -42.2948 0.619176 -6.3165 3.20515 -27.1081 0.491547 10.314 -0.0 -0.0 0.0 0.0 0.0 
834.529 745.55 -1320.98 -178.485 -41.1628 171.806 1.53773 0.780652 4.41234 1.54842 0.498587 4.45296 1.58841 -0.324847 4.46896 1.56075 0.384297 4.46425 -16.1377 9.93552 -1.34257 -16.5411 19.8151 2.31978 -0.0 0.0 -0.0 1.22143 17.959 3.96351 -6.47606 -26.7752 52.6221 1.04864 -27.4497 0.25612 2.39983 0.0783518 -0.296481 -3.54068 19.665 -13.2974 -0.0 0.0 -0.0 10.3796 15.0117 -20.5379 -26.2622 29.4957 -60.5359 0.752691 20.4485 -0.135761 10.4935 -0.249879 1.31529 -1.32494 -6.65334 5.87134 0.0 0.0 0.0 1.35956 8.81168 14.8289 -24.634 0.211925 3.74533 39.8691 22.5519 -5.08157 -15.2045 0.0 0.0 -0.0 0.0 -0.0 25.332 10.8131 15.9003 -47.0572 0.975638 -6.95643 5.00746 -29.0154 0.773722 8.81771 -0.0 -0.0 0.0 0.0 0.0 
842.564 744.216 -1313.43 -179.348 -39.5738 172.212 1.19536 0.921481 4.29409 1.20538 0.646635 4.34389 1.25679 -0.184313 4.38781 1.23029 0.510299 4.36198 -17.2589 11.3436 -0.201765 -17.8276 21.9019 4.15943 -0.0 0.0 -0.0 1.29554 17.8003 4.06408 -6.16729 -26.3597 50.8214 1.18499 -30.4121 0.322099 1.81099 0.0602785 -0.223439 -3.30215 15.4126 -14.2596 -0.0 0.0 -0.0 10.4767 16.6009 -20.6821 -25.7579 28.3234 -62.0434 0.691857 18.9179 -0.115269 11.6366 -0.262447 1.46076 -1.21636 -7.65772 4.70753 0.0 0.0 0.0 2.43854 3.95637 14.4577 -27.649 0.126912 4.20016 39.8911 23.2574 -5.10375 -15.7052 0.0 0.0 -0.0 0.0 -0.0 27.4556 9.95835 14.7047 -48.6917 1.11015 -7.16907 5.76905 -28.1905 0.884869 8.05006 -0.0 -0.0 0.0 0.0 0.0 
845.43 748.297 -1317.84 -177.363 -39.374 175.054 1.0563 0.649332 4.10234 1.06558 0.387202 4.13527 1.09575 -0.411995 4.13288 1.072 0.245308 4.14609 -16.9948 11.096 -1.24334 -17.5505 21.9965 3.03896 -0.0 0.0 -0.0 1.89666 17.6711 4.97608 -4.82558 -26.5362 49.673 1.3557 -33.8825 0.412977 0.638812 0.0220695 -0.078601 -3.28726 12.0319 -16.0632 -0.0 0.0 -0.0 10.5947 18.1336 -20.8621 -25.0441 28.7218 -62.2454 0.646074 17.7472 -0.100868 13.6932 -0.277742 1.72299 -0.947663 -9.42006 2.18443 0.0 0.0 0.0 3.0475 -0.331975 14.0974 -21.4127 0.276174 3.25526 37.6733 22.3634 -4.86424 -17.2991 0.0 0.0 -0.0 0.0 -0.0 32.475 10.2339 9.62407 -42.0248 0.600583 -6.27938 3.45289 -29.042 0.535692 6.66235 -0.0 -0.0 0.0 0.0 0.0 
842.409 748.059 -1318.58 -174.995 -39.3511 178.289 1.2023 0.583629 3.66965 1.20973 0.349101 3.6993 1.23376 -0.356897 3.69855 1.21475 0.231285 3.70851 -16.3178 11.6413 -0.553021 -16.8697 22.6397 3.7542 -0.0 0.0 -0.0 1.98966 17.1065 5.08469 -3.05132 -26.1881 49.2553 1.51633 -36.9095 0.506053 -1.17383 -0.0428356 0.14378 -2.88056 6.14613 -16.4947 -0.0 0.0 -0.0 11.5319 21.781 -22.726 -23.1988 26.2301 -63.3647 0.456506 12.7427 -0.0509747 16.2821 -0.283602 2.05358 -0.858855 -11.7484 0.598786 0.0 0.0 0.0 2.17378 -2.62165 12.886 -12.2269 0.307268 1.8477 32.7057 19.411 -4.28935 -21.5547 0.0 0.0 -0.0 0.0 -0.0 36.1894 6.71379 7.39721 -35.1504 0.187407 -5.30757 2.13224 -26.9813 0.327596 4.15333 -0.0 -0.0 0.0 0.0 0.0 
855.788 745.334 -1315.68 -172.975 -39.4858 -179.354 1.26737 0.464659 3.2486 1.2732 0.257114 3.27155 1.2889 -0.363211 3.26149 1.27409 0.156152 3.27791 -14.2867 11.3132 -0.946359 -14.6932 22.1697 2.83176 -0.0 0.0 -0.0 2.44166 16.8203 5.77207 -0.859515 -23.0306 48.0874 1.66808 -39.5644 0.599997 -2.4422 -0.0924256 0.298132 -2.26344 0.0892816 -15.2581 -0.0 0.0 -0.0 11.7334 22.0955 -23.1593 -24.4698 25.5438 -62.4888 0.340834 9.58359 -0.0285716 18.9519 -0.273999 2.39442 -0.431652 -11.8309 -2.14202 0.0 0.0 0.0 1.65322 -1.78612 12.7733 -8.99423 0.264526 1.35358 33.5309 20.6217 -4.40012 -24.8665 0.0 0.0 -0.0 0.0 -0.0 38.3881 5.06748 5.79931 -30.7594 -0.0142297 -4.66417 -1.88423 -25.4521 -0.289531 3.15727 -0.0 -0.0 0.0 0.0 0.0 
868.158 744.316 -1313.35 -172.078 -39.6588 -178.947 1.18469 0.436212 3.34355 1.19088 0.222693 3.3645 1.20512 -0.419495 3.34569 1.18952 0.113849 3.36993 -14.2176 11.7438 0.825879 -14.6102 21.9232 4.63068 -0.0 0.0 -0.0 1.98161 16.4363 5.03083 -0.407609 -24.6021 47.9348 1.78998 -41.5597 0.679276 -3.3596 -0.130421 0.409081 -1.76579 -4.46071 -13.9188 -0.0 0.0 -0.0 11.6856 21.0967 -23.1321 -25.8769 23.8 -61.8563 0.38749 10.866 -0.036854 20.9984 -0.255894 2.65516 -0.152899 -12.129 -4.0309 0.0 0.0 0.0 0.57379 -2.84295 13.2546 -5.56878 0.188896 0.833433 31.9372 18.8708 -4.19763 -27.9079 0.0 0.0 -0.0 0.0 -0.0 40.5901 4.00199 5.14926 -27.4545 -0.133117 -4.17096 -3.89332 -24.3529 -0.597167 2.16451 -0.0 -0.0 0.0 0.0 0.0 
876.201 741.783 -1308.34 -171.897 -41.4924 -178.173 1.08118 0.37539 3.10015 1.08651 0.177456 3.11773 1.09728 -0.422931 3.09403 1.08393 0.0707743 3.12197 -12.7443 11.4852 1.25001 -13.0262 21.0541 4.64718 -0.0 0.0 -0.0 2.92004 16.1628 6.49473 1.19612 -24.2859 47.217 1.83915 -42.3313 0.712143 -6.25864 -0.262105 0.75552 -1.41145 -3.47394 -11.0316 -0.0 0.0 -0.0 11.8695 22.9945 -23.3909 -27.1761 23.1675 -62.5197 0.319203 8.98563 -0.0250817 23.1714 -0.226487 2.93116 0.657429 -8.13595 -7.66013 0.0 0.0 0.0 1.54689 -5.46628 12.6131 -8.54261 0.256337 1.28476 33.3605 20.7441 -4.38453 -28.7634 0.0 0.0 -0.0 0.0 -0.0 41.7076 2.98168 4.53059 -25.8985 -0.179187 -3.93662 -5.78122 -22.6528 -0.88265 2.51547 -0.0 -0.0 0.0 0.0 0.0 
